<svg width="824" height="824" viewBox="0 0 824 824" fill="none" xmlns="http://www.w3.org/2000/svg">
<path d="M408.327 174.67C436.05 172.478 456.125 184.212 469.932 199.75C483.725 215.271 491.275 234.597 494.007 247.672L494.018 247.723V374.211L493.772 374.357L474.308 385.88L480.089 394.155L562.134 351.701L562.863 351.324V407.513C562.56 431.778 548.37 485.528 494.018 506.772V573.471L534.62 541.635L524.739 503.835L524.648 503.489L524.948 503.292L562.088 478.788L562.863 478.276V507.277C564.222 513.019 566.523 521.969 569.026 530.662C571.541 539.392 574.25 547.828 576.406 552.508C576.775 553.31 576.567 554.287 576.074 555.302C575.571 556.338 574.712 557.54 573.563 558.876C571.262 561.555 567.723 564.867 563.305 568.624C554.463 576.141 542.028 585.498 528.734 595.232C502.118 614.72 472.088 635.699 460.34 646.564L459.501 647.34V486.154L459.78 486.016L504.059 464.288C508.264 458.704 514.317 449.256 518.878 438.956C523.363 428.827 526.362 417.967 524.851 409.163L428.859 457.699L442.374 526.301L442.438 526.626L442.164 526.812L411.364 547.686L411.07 547.885L410.786 547.673L382.704 526.799L382.393 526.568L382.539 526.209C385.775 518.285 388.411 505.179 390.389 491.973C392.338 478.96 393.64 465.9 394.254 457.718L298.357 409.231C298.662 434.074 312.762 456.194 319.904 464.281L363.297 486.018L363.573 486.157V648.15L362.759 647.495L246.809 554.014L246.503 553.768L246.669 553.414C248.928 548.586 252.41 540.477 255.507 531.856C258.607 523.225 261.306 514.121 262.024 507.287C263.37 494.474 262.73 483.814 262.152 479.268C262.11 478.936 262.068 478.636 262.027 478.373L262.521 478.297L263.016 478.221C263.049 478.436 263.08 478.673 263.114 478.929L295.435 503.31L295.651 503.473L295.632 503.745C295.329 507.991 294.649 514.992 293.59 522.206C292.555 529.255 291.15 536.542 289.377 541.66L328.15 573.443V506.771C320.185 503.636 300.957 493.748 283.971 477.755C283.517 477.522 282.44 476.856 281.019 475.95C279.49 474.975 277.523 473.697 275.405 472.308C271.169 469.531 266.322 466.31 263.15 464.192L262.928 464.043V336.686L262.932 336.656C265.058 319.313 278.569 275.82 315.621 240.154L316.468 239.338V290.628L316.332 290.773C311.578 295.833 301.235 312.19 298.348 336.775C296.9 349.103 296.601 357.243 296.811 362.403C296.916 364.984 297.147 366.807 297.421 368.029C297.558 368.64 297.704 369.09 297.843 369.404C297.968 369.688 298.073 369.822 298.13 369.876L329.056 384.925V338.221L329.334 338.083L411.768 297.243L411.989 297.133L412.21 297.243L459.501 320.485V247.796C458.602 237.418 448.428 215.007 414.623 209.242C397.772 206.368 385.78 212.199 377.609 220.646C369.435 229.097 365.078 240.181 363.573 247.823V307.065L363.312 307.207L329.794 325.358L329.056 325.757V247.738L329.062 247.702C332.401 225.195 352.923 179.053 408.327 174.67ZM412.896 345.53C402.39 345.53 393.872 354.063 393.872 364.588C393.872 371.206 397.239 377.036 402.35 380.453L396.097 417.143L395.997 417.727H428.902L428.786 417.131L421.83 381.417C427.832 378.211 431.919 371.878 431.919 364.588C431.919 354.063 423.401 345.53 412.896 345.53ZM506.419 242.526C522.882 250.59 535.4 268.57 544.358 287.665C553.326 306.777 558.773 327.105 561.044 339.999L561.109 340.37L560.771 340.535L527.253 356.871L526.43 357.272L526.538 356.362C530.139 326.06 514.224 300.425 505.833 291.417L505.699 291.273V242.173L506.419 242.526Z" fill="#1C1C1C"/>
<mask id="mask0_516_159" style="mask-type:alpha" maskUnits="userSpaceOnUse" x="246" y="174" width="331" height="475">
<path d="M408.327 174.67C436.05 172.478 456.125 184.212 469.932 199.75C483.725 215.271 491.275 234.597 494.007 247.672L494.018 247.723V374.211L493.772 374.357L474.308 385.88L480.089 394.155L562.134 351.701L562.863 351.324V407.513C562.56 431.778 548.37 485.528 494.018 506.772V573.471L534.62 541.635L524.739 503.835L524.648 503.489L524.948 503.292L562.088 478.788L562.863 478.276V507.277C564.222 513.019 566.523 521.969 569.026 530.662C571.541 539.392 574.25 547.828 576.406 552.508C576.775 553.31 576.567 554.287 576.074 555.302C575.571 556.338 574.712 557.54 573.563 558.876C571.262 561.555 567.723 564.867 563.305 568.624C554.463 576.141 542.028 585.498 528.734 595.232C502.118 614.72 472.088 635.699 460.34 646.564L459.501 647.34V486.154L459.78 486.016L504.059 464.288C508.264 458.704 514.317 449.256 518.878 438.956C523.363 428.827 526.362 417.967 524.851 409.163L428.859 457.699L442.374 526.301L442.438 526.626L442.164 526.812L411.364 547.686L411.07 547.885L410.786 547.673L382.704 526.799L382.393 526.568L382.539 526.209C385.775 518.285 388.411 505.179 390.389 491.973C392.338 478.96 393.64 465.9 394.254 457.718L298.357 409.231C298.662 434.074 312.762 456.194 319.904 464.281L363.297 486.018L363.573 486.157V648.15L362.759 647.495L246.809 554.014L246.503 553.768L246.669 553.414C248.928 548.586 252.41 540.477 255.507 531.856C258.607 523.225 261.306 514.121 262.024 507.287C263.37 494.475 262.73 483.814 262.152 479.268C262.11 478.936 262.068 478.636 262.027 478.373L262.521 478.297L263.016 478.221C263.049 478.436 263.08 478.673 263.114 478.929L295.435 503.31L295.651 503.473L295.632 503.745C295.329 507.991 294.649 514.992 293.59 522.206C292.555 529.255 291.151 536.542 289.377 541.66L328.15 573.443V506.771C320.185 503.636 300.957 493.748 283.971 477.755C283.517 477.522 282.44 476.857 281.019 475.95C279.49 474.975 277.523 473.697 275.405 472.308C271.169 469.531 266.322 466.31 263.15 464.192L262.928 464.043V336.686L262.932 336.656C265.057 319.314 278.568 275.82 315.621 240.154L316.468 239.338V290.628L316.332 290.773C311.578 295.834 301.235 312.19 298.348 336.775C296.9 349.103 296.601 357.243 296.811 362.403C296.916 364.984 297.147 366.807 297.421 368.029C297.558 368.64 297.704 369.09 297.843 369.404C297.968 369.688 298.073 369.822 298.13 369.876L329.056 384.925V338.221L329.334 338.083L411.768 297.243L411.989 297.133L412.21 297.243L459.501 320.485V247.796C458.602 237.418 448.428 215.007 414.623 209.242C397.771 206.368 385.78 212.199 377.609 220.646C369.435 229.097 365.078 240.181 363.573 247.823V307.065L363.312 307.207L329.794 325.358L329.056 325.757V247.738L329.062 247.702C332.401 225.195 352.923 179.053 408.327 174.67ZM412.896 345.53C402.389 345.53 393.872 354.063 393.872 364.588C393.872 371.206 397.239 377.036 402.35 380.453L396.097 417.143L395.997 417.727H428.902L428.786 417.131L421.83 381.417C427.832 378.211 431.919 371.878 431.919 364.588C431.919 354.063 423.402 345.53 412.896 345.53ZM506.419 242.525C522.882 250.589 535.4 268.569 544.358 287.664C553.326 306.776 558.773 327.104 561.044 339.998L561.109 340.369L560.771 340.534L527.253 356.87L526.43 357.271L526.538 356.361C530.139 326.059 514.224 300.424 505.833 291.417L505.699 291.272V242.172L506.419 242.525Z" fill="black"/>
</mask>
<g mask="url(#mask0_516_159)">
<rect x="410.868" y="119.545" width="224.655" height="618.962" fill="black"/>
</g>
</svg>
